<?xml version="1.0" encoding="utf-8"?>
<!-- Generator: Adobe Illustrator 26.0.0, SVG Export Plug-In . SVG Version: 6.00 Build 0)  -->
<svg version="1.1" xmlns="http://www.w3.org/2000/svg" xmlns:xlink="http://www.w3.org/1999/xlink" x="0px" y="0px"
	 viewBox="0 0 138.9 138.9" style="enable-background:new 0 0 138.9 138.9;" xml:space="preserve">
<style type="text/css">
	.st0{fill:url(#SVGID_1_);}
	.st1{fill:#444242;}
	.st2{fill-rule:evenodd;clip-rule:evenodd;fill:#444242;}
	.st3{fill:#3F3E35;}
</style>
<g id="Background">
</g>
<g id="Objects">
	<g>
		<g>
			<g>
				<g>
					<g>
						<g>
							<g>
								<g>
									<path class="st3" d="M51.4,45.5c-0.2,0-0.3,0-0.5,0c-3.3-0.1-8.3-1.2-13.2-6.1c-3.3-3.2-5-7.6-5-12.2c0-4.6,1.8-8.9,5-12.2
										c5.5-5.5,14.5-5.5,20,0c4.6,4.6,4.6,12,0,16.5c-3.8,3.8-10,3.8-13.8,0c-0.7-0.7-0.7-1.9,0-2.6c0.7-0.7,1.9-0.7,2.6,0
										c2.3,2.3,6.1,2.3,8.5,0c3.1-3.1,3.1-8.2,0-11.3c-4.1-4.1-10.7-4.1-14.7,0c-2.5,2.6-4,5.9-4,9.5s1.4,7,4,9.5
										c4,4,8,4.9,10.6,5c3.3,0.1,6.4-1.1,8.5-3.2c0.7-0.7,1.9-0.7,2.6,0c0.7,0.7,0.7,1.9,0,2.6C59.4,43.9,55.5,45.5,51.4,45.5z"
										/>
								</g>
								<g>
									<path class="st3" d="M66.3,63.6c-3.1,0-6.1-1.2-8.3-3.4c-2.7-2.7-4.2-6.2-4.2-10c0-3.8,1.5-7.3,4.2-10
										c6.2-6.9,20.9-17.6,32.1-8c0.1,0.1,3.4,2.7,3.7,6.9c0.2,2.7-0.8,5.2-3.1,7.6c-0.7,0.8-1.9,0.8-2.6,0.1
										c-0.8-0.7-0.8-1.9-0.1-2.6c1.5-1.6,2.2-3.2,2.1-4.8c-0.2-2.5-2.3-4.3-2.4-4.3c-11.2-9.7-26.8,7.5-27,7.7
										c-2,2.1-3.1,4.7-3.1,7.5c0,2.8,1.1,5.4,3.1,7.4c1.5,1.5,3.5,2.3,5.6,2.3c2.1,0,4.1-0.8,5.6-2.3c2.3-2.3,2.3-6.2,0-8.5
										c-1.7-1.7-4.6-1.7-6.3,0c-0.6,0.6-0.9,1.4-0.9,2.2c0,0.8,0.3,1.6,0.9,2.2c0.7,0.7,0.7,1.9,0,2.6c-0.7,0.7-1.9,0.7-2.6,0
										c-1.3-1.3-2-3-2-4.9c0-1.8,0.7-3.6,2-4.9c1.5-1.5,3.6-2.4,5.8-2.4c2.2,0,4.2,0.8,5.8,2.4c3.8,3.8,3.8,10,0,13.8
										C72.3,62.4,69.4,63.6,66.3,63.6z"/>
								</g>
								<g>
									<path class="st3" d="M71.9,33.9c-0.6,0-1.2-0.3-1.6-0.8c-0.6-0.9-0.3-2,0.5-2.6c1.9-1.2,3.5-2.2,5-3c5.1-3,6.3-3.8,6.1-7.6
										c-0.2-4-3.4-4.9-4.4-5.1c-2.2-0.4-4.9,0.3-5.9,2.5c-0.4,0.9-1.5,1.3-2.5,0.9c-0.9-0.4-1.3-1.5-0.9-2.5
										c1.6-3.5,5.7-5.4,10-4.6c4.3,0.8,7.2,4.2,7.4,8.5c0.3,6.3-2.9,8.2-7.9,11.1c-1.4,0.8-3,1.8-4.8,2.9
										C72.6,33.8,72.3,33.9,71.9,33.9z"/>
								</g>
								<g>
									<path class="st3" d="M83.8,21.6C83.8,21.6,83.8,21.6,83.8,21.6c-1.1,0-1.9-0.9-1.9-1.9c0.2-5.5,3.6-8.3,6.8-8.7
										c1-0.1,1.9,0.6,2.1,1.6c0.1,1-0.6,1.9-1.6,2.1c-1.5,0.2-3.3,1.6-3.4,5.1C85.6,20.8,84.8,21.6,83.8,21.6z"/>
								</g>
							</g>
							<g>
								<path class="st3" d="M34.6,30c-1,0-1.9-0.8-1.9-1.9c0-7.5-6.1-13.5-13.5-13.5c-1,0-1.9-0.8-1.9-1.9s0.8-1.9,1.9-1.9
									c9.5,0,17.3,7.7,17.3,17.3C36.4,29.2,35.6,30,34.6,30z"/>
							</g>
						</g>
						<g>
							<path class="st3" d="M63.2,16.8c-0.8,0-1.5-0.5-1.8-1.2c-0.2-0.6-0.5-1.1-0.9-1.3c-0.6-0.5-0.9-1.3-0.6-2.1
								c0.3-0.8,1-1.3,1.8-1.3h3c0.8,0,1.5,0.5,1.8,1.3c0.3,0.8,0,1.6-0.6,2.1c-0.4,0.3-0.7,0.8-0.9,1.3
								C64.6,16.3,63.9,16.8,63.2,16.8C63.2,16.8,63.2,16.8,63.2,16.8z"/>
						</g>
					</g>
					<g>
						<path class="st3" d="M19.2,16.4C19.2,16.4,19.2,16.4,19.2,16.4v-1.7c0.5,0,1-0.4,1-1c0-0.3-0.1-0.5-0.3-0.7
							c-0.2-0.2-0.4-0.3-0.7-0.3c-0.5,0-1,0.4-1,1c0,0.6,0.5,1.1,1,1V16.4c-0.7,0-1.4-0.3-1.9-0.8c-0.5-0.5-0.8-1.2-0.8-1.9
							c0-1.5,1.2-2.7,2.7-2.7s2.7,1.2,2.7,2.7S20.7,16.4,19.2,16.4z"/>
					</g>
					<g>
						<path class="st3" d="M45.9,32.2c-1.5,0-2.7-1.2-2.7-2.7s1.2-2.7,2.7-2.7c1.5,0,2.7,1.2,2.7,2.7S47.4,32.2,45.9,32.2z
							 M45.9,28.5c-0.5,0-1,0.4-1,1c0,0.5,0.4,1,1,1c0.5,0,1-0.4,1-1C46.9,29,46.4,28.5,45.9,28.5z"/>
					</g>
					<g>
						<path class="st3" d="M65.2,57.3c-1.5,0-2.7-1.2-2.7-2.7s1.2-2.7,2.7-2.7c1.5,0,2.7,1.2,2.7,2.7S66.7,57.3,65.2,57.3z
							 M65.2,53.6c-0.5,0-1,0.4-1,1c0,0.5,0.4,1,1,1c0.5,0,1-0.4,1-1C66.2,54,65.8,53.6,65.2,53.6z"/>
					</g>
					<g>
						<path class="st3" d="M88.3,47.8c-0.7,0-1.4-0.3-1.9-0.8c-0.5-0.5-0.8-1.2-0.8-1.9c0-1.5,1.2-2.7,2.7-2.7
							c1.5,0,2.7,1.2,2.7,2.7C91,46.6,89.8,47.8,88.3,47.8L88.3,47.8z M88.3,44.1c-0.5,0-1,0.4-1,1c0,0.5,0.4,1,1,1c0.5,0,1-0.4,1-1
							c0-0.3-0.1-0.5-0.3-0.7C88.8,44.2,88.6,44.1,88.3,44.1l0,1.9L88.3,44.1z"/>
					</g>
					<g>
						<path class="st3" d="M70.7,19.9c-1.5,0-2.7-1.2-2.7-2.7c0-1.5,1.2-2.7,2.7-2.7c1.5,0,2.7,1.2,2.7,2.7
							C73.4,18.7,72.2,19.9,70.7,19.9z M70.7,16.1c-0.5,0-1,0.4-1,1c0,0.5,0.4,1,1,1c0.5,0,1-0.4,1-1C71.7,16.6,71.2,16.1,70.7,16.1
							z"/>
					</g>
					<g>
						<path class="st3" d="M89.8,16.4C89.8,16.4,89.8,16.4,89.8,16.4c-1.5,0-2.7-1.2-2.7-2.7c0-0.7,0.3-1.4,0.8-1.9
							c0.5-0.5,1.2-0.8,1.9-0.8c1.5,0,2.7,1.2,2.7,2.7C92.5,15.2,91.3,16.4,89.8,16.4z M89.8,12.7c-0.5,0-1,0.4-1,1c0,0.6,0.4,1,1,1
							c0.3,0,0.5-0.1,0.7-0.3c0.2-0.2,0.3-0.4,0.3-0.7C90.8,13.1,90.3,12.7,89.8,12.7v1.9V12.7z"/>
					</g>
				</g>
				<g>
					<path class="st3" d="M82.2,41.6c-0.2,0-0.5,0-0.7-0.1c-4.2-1.7-6.5-0.2-6.6-0.2c-0.9,0.5-2,0.3-2.6-0.5c-0.6-0.8-0.4-2,0.5-2.6
						c0.2-0.1,4-2.7,10.2-0.2c1,0.4,1.4,1.5,1,2.4C83.6,41.2,82.9,41.6,82.2,41.6z"/>
				</g>
			</g>
			<g>
				<g>
					<g>
						<g>
							<g>
								<g>
									<path class="st3" d="M112.5,106.8L112.5,106.8c-4.6,0-8.9-1.8-12.2-5c-4.8-4.8-6-9.8-6.1-13.2c-0.1-4.3,1.4-8.4,4.3-11.3
										c0.7-0.7,1.9-0.7,2.6,0c0.7,0.7,0.7,1.9,0,2.6c-2.1,2.1-3.3,5.2-3.2,8.5c0.1,2.7,1,6.7,5,10.6c2.5,2.6,5.9,4,9.5,4
										c3.6,0,7-1.4,9.5-4c2-2,3.1-4.6,3.1-7.4c0-2.8-1.1-5.4-3.1-7.4c-3.1-3.1-8.2-3.1-11.3,0c-2.3,2.3-2.3,6.1,0,8.5
										c0.7,0.7,0.7,1.9,0,2.6c-0.7,0.7-1.9,0.7-2.6,0c-3.8-3.8-3.8-10,0-13.8c4.6-4.6,12-4.6,16.5,0c2.7,2.7,4.1,6.2,4.1,10
										c0,3.8-1.5,7.3-4.1,10C121.4,105,117.1,106.8,112.5,106.8z"/>
								</g>
								<g>
									<path class="st3" d="M89.6,85.6c-3.6,0-7.3-1.4-10-4.1c-4.6-4.6-4.6-12,0-16.6c3.8-3.8,10-3.8,13.8,0
										c1.5,1.5,2.4,3.6,2.4,5.8c0,2.2-0.8,4.2-2.4,5.8c-1.3,1.3-3,2-4.9,2c0,0,0,0,0,0c-1.8,0-3.6-0.7-4.9-2
										c-0.7-0.7-0.7-1.9,0-2.6c0.7-0.7,1.9-0.7,2.6,0c0.6,0.6,1.4,0.9,2.2,0.9c0,0,0,0,0,0c0.8,0,1.6-0.3,2.2-0.9
										c0.8-0.8,1.3-2,1.3-3.1c0-1.2-0.5-2.3-1.3-3.1c-2.3-2.3-6.2-2.3-8.5,0c-3.1,3.1-3.1,8.2,0,11.3c4.1,4.1,10.7,4.1,14.8,0
										c0.3-0.2,17.5-15.8,7.8-27c-0.1-0.1-1.9-2.2-4.4-2.4c-1.6-0.1-3.2,0.6-4.8,2.1c-0.8,0.7-1.9,0.7-2.6-0.1
										c-0.7-0.8-0.7-1.9,0.1-2.6c2.4-2.3,5-3.3,7.6-3.1c4.1,0.3,6.8,3.6,6.9,3.7c9.6,11.1-1.1,25.9-8.1,32.1
										C96.8,84.3,93.2,85.6,89.6,85.6z"/>
								</g>
								<g>
									<path class="st3" d="M123.3,71.4c-0.7,0-1.4-0.4-1.7-1.1c-0.4-0.9,0-2,0.9-2.5c2.2-1,2.9-3.7,2.5-5.9
										c-0.2-1-1.1-4.2-5.1-4.4c-3.8-0.2-4.7,1-7.6,6.1c-0.8,1.5-1.8,3.1-3,5c-0.6,0.9-1.7,1.1-2.6,0.5c-0.9-0.6-1.1-1.7-0.5-2.6
										c1.2-1.8,2.1-3.4,2.9-4.8c2.9-5,4.8-8.2,11.1-7.9c4.4,0.2,7.7,3.2,8.5,7.4c0.8,4.2-1.1,8.3-4.6,10
										C123.8,71.3,123.6,71.4,123.3,71.4z"/>
								</g>
								<g>
									<path class="st3" d="M120,57.5c-1,0-1.8-0.8-1.9-1.8c0-1,0.8-1.9,1.8-1.9c3.5-0.1,5-1.9,5.1-3.4c0.1-1,1-1.8,2.1-1.7
										c1,0.1,1.8,1,1.7,2.1C128.5,54,125.6,57.3,120,57.5C120.1,57.5,120.1,57.5,120,57.5z"/>
								</g>
							</g>
							<g>
								<path class="st3" d="M127,122.2c-1,0-1.9-0.8-1.9-1.9c0-7.5-6.1-13.5-13.5-13.5c-1,0-1.9-0.8-1.9-1.9c0-1,0.8-1.9,1.9-1.9
									c9.5,0,17.3,7.7,17.3,17.3C128.8,121.3,128,122.2,127,122.2z"/>
							</g>
						</g>
						<g>
							<path class="st3" d="M127,79.7c-0.6,0-1.1-0.3-1.5-0.7c-0.3-0.4-0.8-0.7-1.3-0.9c-0.7-0.3-1.2-1-1.2-1.8
								c0-0.8,0.5-1.5,1.2-1.8c0.6-0.2,1.1-0.5,1.3-0.9c0.5-0.6,1.3-0.9,2.1-0.6c0.8,0.3,1.3,1,1.3,1.8v3c0,0.8-0.5,1.5-1.3,1.8
								C127.4,79.6,127.2,79.7,127,79.7z"/>
						</g>
					</g>
					<g>
						<path class="st3" d="M126.1,123L126.1,123c-1.5,0-2.7-1.2-2.7-2.7c0-1.5,1.2-2.7,2.7-2.7c1.5,0,2.7,1.2,2.7,2.7
							C128.8,121.8,127.6,123,126.1,123z M126.1,119.3c-0.5,0-1,0.4-1,1c0,0.5,0.4,1,1,1c0.5,0,1-0.4,1-1
							C127.1,119.7,126.7,119.3,126.1,119.3v1.9V119.3z"/>
					</g>
					<g>
						<path class="st3" d="M110.3,96.3c-1.5,0-2.7-1.2-2.7-2.7s1.2-2.7,2.7-2.7c1.5,0,2.7,1.2,2.7,2.7S111.8,96.3,110.3,96.3z
							 M110.3,92.6c-0.5,0-1,0.4-1,1s0.4,1,1,1c0.5,0,1-0.4,1-1S110.8,92.6,110.3,92.6z"/>
					</g>
					<g>
						<path class="st3" d="M85.2,77c-1.5,0-2.7-1.2-2.7-2.7s1.2-2.7,2.7-2.7s2.7,1.2,2.7,2.7S86.7,77,85.2,77z M85.2,73.2
							c-0.5,0-1,0.4-1,1s0.4,1,1,1s1-0.4,1-1S85.8,73.2,85.2,73.2z"/>
					</g>
					<g>
						<path class="st3" d="M94.7,53.9c-0.7,0-1.4-0.3-1.9-0.8c-0.5-0.5-0.8-1.2-0.8-1.9c0-1.5,1.2-2.7,2.7-2.7
							c1.5,0,2.7,1.2,2.7,2.7C97.4,52.7,96.2,53.9,94.7,53.9L94.7,53.9z M94.7,50.2c-0.5,0-1,0.4-1,1c0,0.5,0.4,1,1,1
							c0.5,0,1-0.4,1-1c0-0.3-0.1-0.5-0.3-0.7C95.2,50.3,94.9,50.2,94.7,50.2l0,1.9L94.7,50.2z"/>
					</g>
					<g>
						<path class="st3" d="M122.6,71.5c-1.5,0-2.7-1.2-2.7-2.7c0-1.5,1.2-2.7,2.7-2.7c1.5,0,2.7,1.2,2.7,2.7
							C125.4,70.3,124.1,71.5,122.6,71.5z M122.6,67.8c-0.5,0-1,0.4-1,1c0,0.5,0.4,1,1,1c0.5,0,1-0.4,1-1
							C123.6,68.3,123.2,67.8,122.6,67.8z"/>
					</g>
					<g>
						<path class="st3" d="M126.1,52.4L126.1,52.4L126.1,52.4c-1.5,0-2.7-1.2-2.7-2.7c0-1.5,1.2-2.7,2.7-2.7c1.5,0,2.7,1.2,2.7,2.7
							c0,0.7-0.3,1.4-0.8,1.9C127.5,52.1,126.8,52.4,126.1,52.4z M126.1,48.7c-0.3,0-0.5,0.1-0.7,0.3c-0.2,0.2-0.3,0.4-0.3,0.7
							c0,0.5,0.4,1,1,1c0,0,0,0,0,0v-0.1v0.1c0.6,0,1-0.5,1-1C127.1,49.1,126.7,48.7,126.1,48.7z"/>
					</g>
				</g>
				<g>
					<path class="st3" d="M100,67.5c-0.4,0-0.7-0.1-1.1-0.3c-0.8-0.6-1-1.7-0.5-2.6c0.1-0.1,1.5-2.5-0.2-6.6c-0.4-1,0.1-2,1-2.4
						c1-0.4,2,0.1,2.4,1c2.5,6.2-0.1,10-0.2,10.2C101.2,67.3,100.6,67.5,100,67.5z"/>
				</g>
			</g>
			<g>
				<g>
					<path class="st3" d="M100.4,41.4C100.4,41.4,100.4,41.4,100.4,41.4c-0.5,0-1-0.2-1.4-0.5c0,0-0.1-0.1-0.1-0.1
						c-1.4-1.5-0.6-2.6,5.7-11.3c3.3-4.5,7.3-10.1,8.3-12.4c1.9-4.3,5.1-6.9,8.7-6.9c2,0,3.9,0.8,5.5,2.4c1.9,1.9,2.8,4.4,2.3,6.8
						c-0.6,3.1-3,5.7-6.7,7.4c-2.3,1-7.9,5.1-12.4,8.3C102.8,40.6,101.5,41.4,100.4,41.4z M121.7,13.9c-2,0-4,1.8-5.3,4.6
						c-1.2,2.7-5,8-8.7,13.1c-0.4,0.6-0.8,1.1-1.3,1.7c0.6-0.4,1.2-0.8,1.7-1.3c5.1-3.7,10.4-7.5,13.1-8.7c2.5-1.1,4.2-2.8,4.6-4.6
						c0.2-1.2-0.2-2.5-1.3-3.5C123.7,14.4,122.7,13.9,121.7,13.9z"/>
				</g>
				<g>
					<path class="st3" d="M106,45.3c-1.2,0-1.8-0.7-2-1.4c0-0.1,0-0.1,0-0.2c-0.2-1.6-0.3-1.7,10.8-8c1.8-1,3.4-1.9,4.2-2.4
						c1.4-0.9,2.9-1.3,4.3-1.3c2.8,0,4.9,1.7,5.5,4.4c0.3,1.7,0,3.2-1,4.4c-1.1,1.4-2.9,2.1-5,2.1c0,0,0,0,0,0
						c-0.6,0-1.3-0.1-1.9-0.2c-0.1,0-0.2,0-0.6,0c-2.1,0-6.3,1-9.3,1.6C108.2,45,106.8,45.3,106,45.3z M123.3,35.7
						c-0.7,0-1.5,0.3-2.4,0.8c-0.8,0.5-2.4,1.4-4.3,2.4c-0.4,0.2-0.8,0.4-1.2,0.7c2.5-0.5,4.7-0.7,6.1-0.5c1.5,0.3,2.8,0,3.3-0.6
						c0.3-0.3,0.3-0.8,0.2-1.3C124.9,36.2,124.3,35.7,123.3,35.7z"/>
				</g>
				<g>
					<path class="st3" d="M96.4,35.8c-0.1,0-0.2,0-0.4,0c-0.1,0-0.1,0-0.2,0c-2-0.5-1.7-1.9-0.5-6.9c0.7-3.1,1.9-8.4,1.6-9.9
						c-0.5-2.5,0-4.7,1.2-6.2c1.2-1.5,3.1-2.1,5.1-1.7c1.8,0.4,3.3,1.5,4,3.1c0.9,1.9,0.5,4.4-0.8,6.6c-0.5,0.8-1.4,2.4-2.4,4.2
						C98,35.7,97.8,35.8,96.4,35.8z M102.1,14.7c-0.4,0-0.8,0.1-1,0.5c-0.5,0.6-0.7,1.8-0.4,3.1c0.3,1.3,0,3.4-0.5,6.1
						c0.2-0.4,0.4-0.8,0.6-1.1c1-1.9,2-3.5,2.5-4.3c0.7-1.2,1-2.4,0.6-3.2c-0.2-0.5-0.6-0.8-1.3-0.9
						C102.4,14.7,102.2,14.7,102.1,14.7z"/>
				</g>
			</g>
		</g>
		<g>
			<path class="st3" d="M134,135.8c-1,0-1.9-0.8-1.9-1.9V7.6H5.8C4.8,7.6,4,6.8,4,5.8c0-1,0.8-1.9,1.9-1.9H134c1,0,1.9,0.8,1.9,1.9
				v128.2C135.9,135,135.1,135.8,134,135.8z"/>
		</g>
	</g>
</g>
</svg>
